<?xml version="1.0" encoding="utf-8"?>
<!-- Generator: Adobe Illustrator 15.1.0, SVG Export Plug-In . SVG Version: 6.00 Build 0)  -->
<!DOCTYPE svg PUBLIC "-//W3C//DTD SVG 1.1//EN" "http://www.w3.org/Graphics/SVG/1.1/DTD/svg11.dtd">
<svg version="1.1" id="Layer_1" xmlns="http://www.w3.org/2000/svg" xmlns:xlink="http://www.w3.org/1999/xlink" x="0px" y="0px"
	 width="437.724px" height="179.219px" viewBox="0 0 437.724 179.219" enable-background="new 0 0 437.724 179.219"
	 xml:space="preserve">
<g>
	<path fill="#FFFFFF" d="M171.16,157.359v1.096c0,5.197-3.398,9.216-8.99,9.216c-5.648,0-9.975-4.524-9.975-10.199
		c0-5.563,4.355-10.058,9.945-10.058c2.642,0,4.918,1.124,6.688,2.696c0.196,0.197,0.225,0.394,0.028,0.59l-1.124,1.181
		c-0.197,0.196-0.394,0.169-0.59,0c-1.376-1.151-3.007-1.911-5.002-1.911c-4.017,0-7.276,3.26-7.276,7.502
		c0,4.354,3.175,7.643,7.306,7.643c3.765,0,6.35-2.444,6.462-5.815h-6.182c-0.253,0-0.421-0.169-0.421-0.423v-1.517
		c0-0.252,0.168-0.422,0.421-0.422h8.288C170.991,156.937,171.16,157.107,171.16,157.359z"/>
	<path fill="#FFFFFF" d="M197.268,167.305h-1.939c-0.225,0-0.393-0.085-0.506-0.281L190.188,160h-2.726v6.883
		c0,0.254-0.169,0.423-0.422,0.423h-1.77c-0.253,0-0.422-0.169-0.422-0.423v-18.823c0-0.253,0.169-0.421,0.422-0.421h5.422
		c4.355,0,6.715,2.612,6.715,6.181c0,2.922-1.601,5.226-4.579,5.928l4.72,7.053C197.744,167.108,197.604,167.305,197.268,167.305z
		 M187.462,157.612h3.118c2.332,0,4.299-1.012,4.299-3.793s-1.967-3.793-4.299-3.793h-3.118V157.612z"/>
	<path fill="#FFFFFF" d="M210.326,157.555c0-5.647,4.496-10.142,10.059-10.142c5.563,0,10.059,4.494,10.059,10.142
		c0,5.619-4.495,10.115-10.059,10.115C214.822,167.67,210.326,163.174,210.326,157.555z M227.858,157.555
		c0-4.298-3.288-7.67-7.474-7.67c-4.187,0-7.474,3.372-7.474,7.67c0,4.243,3.287,7.614,7.474,7.614
		C224.57,165.169,227.858,161.798,227.858,157.555z"/>
	<path fill="#FFFFFF" d="M258.364,148.059v11.632c0,5.226-3.005,7.979-7.136,7.979c-4.158,0-7.164-2.754-7.164-7.979v-11.632
		c0-0.253,0.168-0.421,0.421-0.421h1.771c0.253,0,0.421,0.168,0.421,0.421v11.632c0,3.708,1.884,5.479,4.552,5.479
		c2.641,0,4.523-1.771,4.523-5.479v-11.632c0-0.253,0.169-0.421,0.421-0.421h1.771C258.196,147.638,258.364,147.806,258.364,148.059
		z"/>
	<path fill="#FFFFFF" d="M285.528,153.819c0,3.54-2.36,6.181-6.714,6.181h-3.232v6.883c0,0.254-0.168,0.423-0.421,0.423h-1.77
		c-0.254,0-0.422-0.169-0.422-0.423v-18.823c0-0.253,0.168-0.421,0.422-0.421h5.423C283.168,147.638,285.528,150.25,285.528,153.819
		z M282.999,153.819c0-2.781-1.966-3.793-4.298-3.793h-3.119v7.586h3.119C281.033,157.612,282.999,156.6,282.999,153.819z"/>
</g>
<g>
	<linearGradient id="SVGID_1_" gradientUnits="userSpaceOnUse" x1="243.959" y1="74.9116" x2="215.7385" y2="6.2341">
		<stop  offset="0" style="stop-color:#EE273E"/>
		<stop  offset="1" style="stop-color:#DA1F2C"/>
	</linearGradient>
	<path fill="url(#SVGID_1_)" d="M203.994,16.118h12.145v6.776c0,0.158,0.128,0.286,0.285,0.286h4.876
		c0.158,0,0.287-0.128,0.287-0.286v-6.776h12.143c0.158,0,0.285-0.127,0.285-0.285v-3.999c0-0.158-0.127-0.286-0.285-0.286h-29.735
		c-0.157,0-0.285,0.128-0.285,0.286v3.999C203.709,15.991,203.837,16.118,203.994,16.118z"/>
	<linearGradient id="SVGID_2_" gradientUnits="userSpaceOnUse" x1="220.9561" y1="84.3657" x2="192.7352" y2="15.6872">
		<stop  offset="0" style="stop-color:#EE273E"/>
		<stop  offset="1" style="stop-color:#DA1F2C"/>
	</linearGradient>
	<path fill="url(#SVGID_2_)" d="M233.729,76.986h-12.143v-6.778c0-0.158-0.129-0.285-0.287-0.285h-4.876
		c-0.157,0-0.285,0.127-0.285,0.285v6.778h-12.145c-0.157,0-0.285,0.127-0.285,0.285v3.998c0,0.157,0.128,0.286,0.285,0.286h29.735
		c0.158,0,0.285-0.129,0.285-0.286v-3.998C234.015,77.113,233.888,76.986,233.729,76.986z"/>
	<linearGradient id="SVGID_3_" gradientUnits="userSpaceOnUse" x1="232.4492" y1="79.645" x2="204.2269" y2="10.9632">
		<stop  offset="0" style="stop-color:#EE273E"/>
		<stop  offset="1" style="stop-color:#DA1F2C"/>
	</linearGradient>
	<path fill="url(#SVGID_3_)" d="M221.3,32.958h-4.876c-0.157,0-0.285,0.128-0.285,0.286v26.673c0,0.158,0.128,0.286,0.285,0.286
		h4.876c0.158,0,0.287-0.128,0.287-0.286V33.244C221.587,33.086,221.458,32.958,221.3,32.958z"/>
	<linearGradient id="SVGID_4_" gradientUnits="userSpaceOnUse" x1="230.2783" y1="80.5366" x2="202.0569" y2="11.8569">
		<stop  offset="0" style="stop-color:#EE273E"/>
		<stop  offset="1" style="stop-color:#DA1F2C"/>
	</linearGradient>
	<path fill="url(#SVGID_4_)" d="M236.801,45.469c3.604-2.021,4.906-5.823,4.906-8.81c0-5.46-4.131-10.987-12.027-10.987h-34.997
		c-0.158,0-0.286,0.127-0.286,0.286v4.223c0,0.158,0.128,0.286,0.286,0.286h4.053v32.228h-3.995c-0.158,0-0.285,0.128-0.285,0.285
		v4.165c0,0.157,0.127,0.286,0.285,0.286h35.634c8.9,0,12.953-6.146,12.953-11.855C243.327,52.089,241.604,47.443,236.801,45.469z
		 M204.455,48.283h8.907c0.157,0,0.285-0.128,0.285-0.286v-4.164c0-0.159-0.128-0.286-0.285-0.286h-8.907V30.467h24.415
		c4.797,0,6.945,3.285,6.945,6.54c0,3.256-2.023,6.541-6.541,6.541h-4.911c-0.158,0-0.285,0.127-0.285,0.286v4.164
		c0,0.158,0.127,0.286,0.285,0.286h4.911c6.022,0,8.159,3.866,8.159,7.177c0,3.601-2.434,7.235-7.869,7.235h-25.109V48.283z"/>
</g>
<g>
	<path fill="#FFFFFF" d="M28.769,101.521h4.009c0.337,0,0.562,0.225,0.562,0.562v25.103c0,0.337-0.225,0.561-0.562,0.561h-4.009
		c-0.338,0-0.562-0.224-0.562-0.561v-25.103C28.207,101.746,28.431,101.521,28.769,101.521z"/>
	<path fill="#FFFFFF" d="M73.833,102.083v25.103c0,0.337-0.225,0.561-0.562,0.561h-4.608c-0.3,0-0.525-0.112-0.675-0.374
		l-10.077-17.795v17.608c0,0.337-0.225,0.561-0.562,0.561H53.34c-0.338,0-0.562-0.224-0.562-0.561v-25.103
		c0-0.337,0.225-0.562,0.562-0.562h4.608c0.3,0,0.524,0.112,0.674,0.375L68.7,119.692v-17.609c0-0.337,0.225-0.562,0.562-0.562
		h4.009C73.608,101.521,73.833,101.746,73.833,102.083z"/>
	<path fill="#FFFFFF" d="M108.75,102.083v3.41c0,0.337-0.224,0.562-0.562,0.562h-5.657v21.13c0,0.337-0.224,0.561-0.562,0.561
		h-4.009c-0.337,0-0.562-0.224-0.562-0.561v-21.13h-5.695c-0.336,0-0.562-0.226-0.562-0.562v-3.41c0-0.337,0.226-0.562,0.562-0.562
		h16.484C108.526,101.521,108.75,101.746,108.75,102.083z"/>
	<path fill="#FFFFFF" d="M140.986,123.775v3.41c0,0.337-0.225,0.561-0.562,0.561H126.6c-0.337,0-0.562-0.224-0.562-0.561v-25.103
		c0-0.337,0.226-0.562,0.562-0.562h13.788c0.337,0,0.562,0.225,0.562,0.562v3.41c0,0.337-0.225,0.562-0.562,0.562h-9.217v5.919
		h8.654c0.337,0,0.562,0.225,0.562,0.562v3.409c0,0.337-0.226,0.562-0.562,0.562h-8.654v6.706h9.254
		C140.762,123.213,140.986,123.438,140.986,123.775z"/>
	<path fill="#FFFFFF" d="M177.887,127.746h-4.271c-0.301,0-0.526-0.112-0.676-0.374l-5.655-8.729h-2.174v8.542
		c0,0.337-0.225,0.561-0.562,0.561h-4.009c-0.337,0-0.562-0.224-0.562-0.561v-25.103c0-0.337,0.225-0.562,0.562-0.562h7.756
		c6.182,0,9.517,3.56,9.517,8.542c0,3.784-1.912,6.744-5.508,7.979l5.956,9.03C178.522,127.484,178.336,127.746,177.887,127.746z
		 M165.111,114.072h3.072c2.396,0,4.72-0.936,4.72-4.009c0-3.035-2.323-4.008-4.72-4.008h-3.072V114.072z"/>
	<path fill="#FFFFFF" d="M215.651,120.179c0,4.945-3.109,7.566-9.665,7.566h-8.917c-0.337,0-0.562-0.224-0.562-0.561v-25.103
		c0-0.337,0.225-0.562,0.562-0.562h8.917c5.208,0,7.793,3.072,7.793,6.632c0,2.734-1.425,4.795-3.336,5.545
		C213.217,114.409,215.651,116.769,215.651,120.179z M205.498,106.055h-3.858v5.807h3.858c2.1,0,3.447-0.975,3.447-3.073
		C208.945,106.804,207.56,106.055,205.498,106.055z M210.519,119.617c0-2.359-1.648-3.521-4.383-3.521h-4.496v7.118h4.496
		C208.87,123.213,210.519,122.089,210.519,119.617z"/>
	<path fill="#FFFFFF" d="M232.343,114.747c0-7.531,6.069-13.524,13.487-13.524c7.419,0,13.487,5.993,13.487,13.524
		c0,7.492-6.068,13.487-13.487,13.487C238.412,128.234,232.343,122.239,232.343,114.747z M254.185,114.747
		c0-4.833-3.672-8.579-8.354-8.579s-8.354,3.746-8.354,8.579c0,4.795,3.672,8.542,8.354,8.542S254.185,119.542,254.185,114.747z"/>
	<path fill="#FFFFFF" d="M293.95,120.478c0,4.945-4.533,7.756-9.103,7.756c-3.822,0-7.119-2.023-8.842-4.085
		c-0.188-0.262-0.188-0.523,0.036-0.786l2.248-2.435c0.225-0.263,0.524-0.3,0.824-0.038c1.799,1.574,3.561,2.548,5.845,2.548
		c2.21,0,3.972-1.199,3.972-3.072c0-4.646-12.439-3.222-12.439-11.801c0-4.57,3.859-7.343,8.169-7.343
		c3.259,0,5.919,1.386,8.016,3.484c0.264,0.262,0.264,0.486,0,0.786l-2.06,2.51c-0.225,0.3-0.487,0.337-0.787,0.112
		c-1.836-1.423-3.146-2.099-5.021-2.099c-2.097,0-3.334,1.125-3.334,2.66C281.475,113.285,293.95,111.375,293.95,120.478z"/>
	<path fill="#FFFFFF" d="M327.831,102.083v3.41c0,0.337-0.225,0.562-0.562,0.562h-5.657v21.13c0,0.337-0.225,0.561-0.562,0.561
		h-4.009c-0.338,0-0.563-0.224-0.563-0.561v-21.13h-5.694c-0.337,0-0.562-0.226-0.562-0.562v-3.41c0-0.337,0.225-0.562,0.562-0.562
		h16.485C327.606,101.521,327.831,101.746,327.831,102.083z"/>
	<path fill="#FFFFFF" d="M343.215,114.747c0-7.531,6.069-13.524,13.488-13.524c7.417,0,13.487,5.993,13.487,13.524
		c0,7.492-6.07,13.487-13.487,13.487C349.284,128.234,343.215,122.239,343.215,114.747z M365.058,114.747
		c0-4.833-3.672-8.579-8.354-8.579c-4.684,0-8.355,3.746-8.355,8.579c0,4.795,3.672,8.542,8.355,8.542
		C361.386,123.289,365.058,119.542,365.058,114.747z"/>
	<path fill="#FFFFFF" d="M409.518,102.083v25.103c0,0.337-0.226,0.561-0.562,0.561h-4.609c-0.3,0-0.524-0.112-0.674-0.374
		l-10.078-17.795v17.608c0,0.337-0.226,0.561-0.562,0.561h-4.009c-0.336,0-0.562-0.224-0.562-0.561v-25.103
		c0-0.337,0.226-0.562,0.562-0.562h4.608c0.301,0,0.525,0.112,0.675,0.375l10.077,17.796v-17.609c0-0.337,0.226-0.562,0.563-0.562
		h4.009C409.292,101.521,409.518,101.746,409.518,102.083z"/>
</g>
</svg>
